<?xml version="1.0" standalone="no"?>
<!DOCTYPE svg PUBLIC "-//W3C//DTD SVG 20010904//EN"
 "http://www.w3.org/TR/2001/REC-SVG-20010904/DTD/svg10.dtd">
<svg version="1.0" xmlns="http://www.w3.org/2000/svg"
 width="100.000000pt" height="113.000000pt" viewBox="0 0 100.000000 113.000000"
 preserveAspectRatio="xMidYMid meet">
<metadata>
Created by potrace 1.16, written by Peter Selinger 2001-2019
</metadata>
<g transform="translate(0.000000,113.000000) scale(0.100000,-0.100000)"
fill="#000000" stroke="none">
<path d="M0 1113 c-2 -70 85 -990 94 -999 13 -14 373 -114 407 -114 13 1 110
25 214 54 171 47 191 55 197 77 7 21 89 938 88 982 0 16 -31 17 -500 17 -469
0 -500 -1 -500 -17z m811 -188 c4 -4 -23 -338 -46 -576 l-7 -66 -128 -35 -129
-36 -130 36 -130 36 -6 66 c-4 36 -7 81 -8 100 l-2 35 65 0 65 0 5 -49 5 -49
65 -19 c62 -17 68 -18 130 -2 36 10 68 20 71 23 4 3 9 39 12 79 l6 72 -214 0
c-239 0 -225 -5 -225 79 l0 48 222 7 c122 3 223 8 225 9 1 2 5 29 9 60 l7 57
-241 0 -240 0 -4 58 c-2 31 -3 60 -1 65 4 7 616 10 624 2z"/>
</g>
</svg>
